<svg xmlns="http://www.w3.org/2000/svg" width="39" height="16" viewBox="0 0 39 16" fill="none">
<path d="M33.849 15.7879C33.3718 15.7879 32.8886 15.7404 32.3995 15.6452C31.9104 15.55 31.4511 15.4013 31.0216 15.1991C30.6041 15.0087 30.2521 14.7589 29.9658 14.4496L30.7353 12.5938C31.0813 12.9864 31.5286 13.2838 32.0774 13.486C32.6262 13.6883 33.1809 13.7894 33.7416 13.7894C34.3977 13.7894 34.9405 13.6526 35.37 13.379C35.7995 13.1172 36.1275 12.7068 36.3542 12.1477C36.5809 11.5886 36.7061 10.8926 36.73 10.0599L36.8553 8.3647H36.4795C36.3602 9.17365 36.1633 9.83388 35.8889 10.3454C35.6146 10.8451 35.2686 11.2138 34.8511 11.4518C34.4454 11.6778 33.9683 11.7908 33.4195 11.7908C32.7395 11.7908 32.1669 11.6183 31.7016 11.2733C31.2363 10.9283 30.8844 10.4168 30.6458 9.73871C30.4191 9.06063 30.3058 8.22195 30.3058 7.22267V3.26123H32.5784V6.70518C32.5784 7.82343 32.7156 8.63832 32.99 9.14985C33.2644 9.64949 33.6819 9.89931 34.2426 9.89931C34.5409 9.89931 34.8153 9.82199 35.0658 9.66734C35.3163 9.50079 35.5251 9.26881 35.6921 8.97141C35.871 8.66211 36.0082 8.28143 36.1037 7.82937C36.211 7.37732 36.2707 6.85983 36.2826 6.27692V3.26123H38.5552V10.1491C38.5552 10.8986 38.4896 11.5767 38.3584 12.1834C38.2391 12.7782 38.0542 13.2957 37.8037 13.7358C37.5531 14.1879 37.237 14.5686 36.8553 14.8779C36.4854 15.1872 36.05 15.4132 35.5489 15.556C35.0479 15.7106 34.4812 15.7879 33.849 15.7879Z" fill="#17B26A"/>
<path d="M20.8623 12.5938V10.6666L25.837 5.34901V5.09919H20.9339V3.26123H28.7359V5.15273L23.6897 10.506V10.738H28.7717V12.5938H20.8623Z" fill="#17B26A"/>
<path d="M13.6119 12.8261C13.0989 12.8261 12.6397 12.7309 12.234 12.5406C11.8284 12.3383 11.5063 12.0409 11.2677 11.6483C11.0411 11.2558 10.9277 10.768 10.9277 10.1851C10.9277 9.69737 11.0172 9.281 11.1962 8.93601C11.387 8.59102 11.6674 8.31146 12.0372 8.09733C12.407 7.8713 12.8663 7.68691 13.4151 7.54415C13.9639 7.3895 14.6081 7.25864 15.3477 7.15158C15.7533 7.0921 16.0814 7.03261 16.3319 6.97313C16.5944 6.91365 16.7852 6.82443 16.9045 6.70547C17.0238 6.57461 17.0835 6.38427 17.0835 6.13445C17.0835 5.76567 16.9523 5.45042 16.6898 5.1887C16.4393 4.91509 16.0277 4.77828 15.4551 4.77828C15.1091 4.77828 14.7751 4.83776 14.453 4.95673C14.1428 5.07569 13.8744 5.26603 13.6477 5.52774C13.4211 5.77756 13.266 6.11066 13.1825 6.52703L11.1604 5.90247C11.2916 5.42663 11.4825 5.01621 11.733 4.67122C11.9835 4.31433 12.2937 4.01098 12.6635 3.76116C13.0333 3.51134 13.4568 3.32695 13.934 3.20798C14.4112 3.08902 14.9361 3.02954 15.5088 3.02954C16.3796 3.02954 17.0954 3.1723 17.6561 3.4578C18.2168 3.73142 18.6344 4.16563 18.9087 4.76044C19.1831 5.34335 19.3203 6.09876 19.3203 7.02667V8.77541C19.3203 9.17988 19.3263 9.6022 19.3382 10.0424C19.3621 10.4706 19.3859 10.9048 19.4098 11.345C19.4456 11.7733 19.4873 12.1896 19.535 12.5941H17.513C17.4652 12.261 17.4235 11.9041 17.3877 11.5234C17.3519 11.1428 17.3221 10.7561 17.2982 10.3636H17.0119C16.8449 10.8156 16.6063 11.232 16.2961 11.6127C15.9859 11.9814 15.6042 12.2788 15.1509 12.5049C14.7095 12.719 14.1965 12.8261 13.6119 12.8261ZM14.5067 11.1665C14.7453 11.1665 14.9838 11.1249 15.2224 11.0416C15.473 10.9584 15.7175 10.8335 15.9561 10.6669C16.1947 10.5004 16.4154 10.2981 16.6182 10.0602C16.821 9.81038 16.994 9.51892 17.1372 9.18583L17.1014 7.59768L17.5308 7.66906C17.328 7.83561 17.0775 7.96647 16.7793 8.06164C16.481 8.15681 16.1649 8.22818 15.8309 8.27577C15.5088 8.32335 15.1807 8.38283 14.8467 8.45421C14.5246 8.51369 14.2323 8.59697 13.9698 8.70403C13.7074 8.7992 13.4986 8.94196 13.3435 9.1323C13.1884 9.31074 13.1109 9.56056 13.1109 9.88176C13.1109 10.2862 13.2421 10.6015 13.5046 10.8275C13.767 11.0535 14.101 11.1665 14.5067 11.1665Z" fill="#17B26A"/>
<path d="M2.03701 9.16803V7.36576H4.81068C5.76506 7.36576 6.47488 7.18137 6.94014 6.81258C7.41733 6.4319 7.65592 5.80735 7.65592 4.93893C7.65592 4.16568 7.43522 3.58276 6.99382 3.19019C6.55242 2.79761 5.87243 2.60133 4.95384 2.60133H2.03701V0.816895H5.00752C5.77102 0.816895 6.45698 0.906116 7.0654 1.08456C7.67382 1.263 8.19276 1.52472 8.62223 1.86971C9.0517 2.2147 9.37977 2.65486 9.60644 3.19019C9.8331 3.71362 9.94644 4.32033 9.94644 5.01031C9.94644 5.91442 9.73767 6.67578 9.32012 7.29438C8.91451 7.91298 8.3061 8.38288 7.49487 8.70408C6.69558 9.01338 5.69944 9.16803 4.50647 9.16803H2.03701ZM0.551758 12.5941V0.816895H2.80648V12.5941H0.551758Z" fill="#17B26A"/>
</svg>